<svg viewBox="0 0 18 18" xmlns="http://www.w3.org/2000/svg">
<path d="M15.1875 10.0312C15.5938 10.1562 15.8125 10.5625 15.6875 10.9688C14.8125 13.9375 12.0625 16 8.96875 16C6.5 16 4.21875 14.6562 2.96875 12.5625V15.75C2.96875 16.1875 2.65625 16.5 2.21875 16.5C1.8125 16.5 1.46875 16.1875 1.46875 15.75V10.75C1.46875 10.3438 1.8125 10 2.21875 10H7.21875C7.65625 10 7.96875 10.3438 7.96875 10.75C7.96875 11.1875 7.625 11.5 7.21875 11.5H4.0625C5 13.3125 6.875 14.5 8.96875 14.5C11.4062 14.5 13.5938 12.875 14.25 10.5312C14.375 10.125 14.7812 9.90625 15.1875 10.0312ZM15.75 1.5C16.1562 1.5 16.5 1.84375 16.5 2.25V7.25C16.5 7.6875 16.1562 8 15.75 8H10.75C10.3125 8 10 7.6875 10 7.25C10 6.84375 10.3125 6.5 10.75 6.5H13.875C12.9375 4.71875 11.0625 3.5 9 3.5C6.5625 3.5 4.375 5.15625 3.6875 7.46875C3.59375 7.875 3.1875 8.09375 2.78125 7.96875C2.375 7.875 2.15625 7.4375 2.25 7.0625C3.125 4.09375 5.90625 2 9 2C11.4688 2 13.75 3.375 15 5.46875V2.25C15 1.84375 15.3125 1.5 15.75 1.5Z" />
</svg>
