<svg width="19" height="18" viewBox="0 0 19 18" xmlns="http://www.w3.org/2000/svg">
  <path d="M17.5 11.5V15.25C17.5 15.6875 17.1562 16 16.75 16C16.3125 16 16 15.6875 16 15.2812V11.5625C16 9.78125 14.5312 8.34375 12.75 8.34375H4.25L8.21875 11.7812C8.53125 12.0625 8.5625 12.5312 8.3125 12.8438C8.15625 12.9375 7.9375 13 7.75 13C7.5625 13 7.375 12.9688 7.25 12.8438L1.75 8.125C1.59375 7.9375 1.5 7.71875 1.5 7.5C1.5 7.28125 1.59375 7.09375 1.75 6.9375L7.25 2.21875C7.53125 1.96875 8.03125 2 8.3125 2.3125C8.5625 2.625 8.53125 3.09375 8.21875 3.375L4.25 6.75H12.75C15.3438 6.75 17.5 8.90625 17.5 11.5Z" />
</svg>
