<svg viewBox="0 0 18 18" xmlns="http://www.w3.org/2000/svg">
  <path d="M9 9C10.0938 9 11 9.90625 11 11C11 12.125 10.0938 13 9 13C7.875 13 7 12.125 7 11C7 9.90625 7.875 9 9 9ZM15.5312 5.0625C15.8125 5.34375 16 5.75 16 6.125V14C16 15.125 15.0938 16 14 16H4C2.875 16 2 15.125 2 14V4C2 2.90625 2.875 2 4 2H11.875C12.25 2 12.6562 2.1875 12.9062 2.4375L15.5312 5.0625ZM6 3.5V6H10.5V3.5H6ZM14.5 14V6.21875C14.5 6.15625 14.4688 6.125 14.4375 6.09375L12 3.625V6.75C12 7.1875 11.6562 7.5 11.25 7.5H5.25C4.8125 7.5 4.5 7.1875 4.5 6.75V3.5H4C3.71875 3.5 3.5 3.75 3.5 4V14C3.5 14.2812 3.71875 14.5 4 14.5H14C14.25 14.5 14.5 14.2812 14.5 14Z" />
</svg>
