<?xml version="1.0" encoding="UTF-8"?>
<!-- ** DO NOT EDIT ** This file is generated by alx-svg-packer -->
<svg xmlns="http://www.w3.org/2000/svg" xmlns:xlink="http://www.w3.org/1999/xlink" width="1" height="1">
<defs>
<symbol viewBox="0 0 24 24" id="power">
<path style="transform: translate(-8px, -8px)" d="M24.0234 12.7656C26.9141 14.2891 28.75 17.2578 28.75 20.5C28.75 25.3438 24.8047 29.25 20 29.25C15.1562 29.25 11.25 25.3438 11.25 20.5C11.25 17.2578 13.0469 14.2891 15.9375 12.7656C16.25 12.6094 16.6406 12.7266 16.7969 13.0391C16.9531 13.3125 16.8359 13.7031 16.5234 13.8594C14.0234 15.1484 12.5 17.7266 12.5 20.5C12.5 24.6406 15.8594 28 20 28C24.1016 28 27.5 24.6406 27.5 20.5C27.5 17.7266 25.9375 15.1484 23.4375 13.8594C23.125 13.7031 23.0078 13.3125 23.1641 13.0391C23.3203 12.7266 23.7109 12.6094 24.0234 12.7656ZM19.9609 21.75C19.6484 21.75 19.375 21.4766 19.375 21.125V11.125C19.375 10.8125 19.6875 10.5 20 10.5C20.3125 10.5 20.625 10.8125 20.625 11.125V21.125C20.625 21.4766 20.3125 21.75 19.9609 21.75Z" ></path>
</symbol>
<symbol viewBox="0 0 18 18" id="refresh">
<path d="M15.1875 10.0312C15.5938 10.1562 15.8125 10.5625 15.6875 10.9688C14.8125 13.9375 12.0625 16 8.96875 16C6.5 16 4.21875 14.6562 2.96875 12.5625V15.75C2.96875 16.1875 2.65625 16.5 2.21875 16.5C1.8125 16.5 1.46875 16.1875 1.46875 15.75V10.75C1.46875 10.3438 1.8125 10 2.21875 10H7.21875C7.65625 10 7.96875 10.3438 7.96875 10.75C7.96875 11.1875 7.625 11.5 7.21875 11.5H4.0625C5 13.3125 6.875 14.5 8.96875 14.5C11.4062 14.5 13.5938 12.875 14.25 10.5312C14.375 10.125 14.7812 9.90625 15.1875 10.0312ZM15.75 1.5C16.1562 1.5 16.5 1.84375 16.5 2.25V7.25C16.5 7.6875 16.1562 8 15.75 8H10.75C10.3125 8 10 7.6875 10 7.25C10 6.84375 10.3125 6.5 10.75 6.5H13.875C12.9375 4.71875 11.0625 3.5 9 3.5C6.5625 3.5 4.375 5.15625 3.6875 7.46875C3.59375 7.875 3.1875 8.09375 2.78125 7.96875C2.375 7.875 2.15625 7.4375 2.25 7.0625C3.125 4.09375 5.90625 2 9 2C11.4688 2 13.75 3.375 15 5.46875V2.25C15 1.84375 15.3125 1.5 15.75 1.5Z" ></path>
</symbol>
<symbol viewBox="0 0 19 18" id="reply">
  <path d="M17.5 11.5V15.25C17.5 15.6875 17.1562 16 16.75 16C16.3125 16 16 15.6875 16 15.2812V11.5625C16 9.78125 14.5312 8.34375 12.75 8.34375H4.25L8.21875 11.7812C8.53125 12.0625 8.5625 12.5312 8.3125 12.8438C8.15625 12.9375 7.9375 13 7.75 13C7.5625 13 7.375 12.9688 7.25 12.8438L1.75 8.125C1.59375 7.9375 1.5 7.71875 1.5 7.5C1.5 7.28125 1.59375 7.09375 1.75 6.9375L7.25 2.21875C7.53125 1.96875 8.03125 2 8.3125 2.3125C8.5625 2.625 8.53125 3.09375 8.21875 3.375L4.25 6.75H12.75C15.3438 6.75 17.5 8.90625 17.5 11.5Z" ></path>
</symbol>
<symbol viewBox="0 0 18 18" id="save">
  <path d="M9 9C10.0938 9 11 9.90625 11 11C11 12.125 10.0938 13 9 13C7.875 13 7 12.125 7 11C7 9.90625 7.875 9 9 9ZM15.5312 5.0625C15.8125 5.34375 16 5.75 16 6.125V14C16 15.125 15.0938 16 14 16H4C2.875 16 2 15.125 2 14V4C2 2.90625 2.875 2 4 2H11.875C12.25 2 12.6562 2.1875 12.9062 2.4375L15.5312 5.0625ZM6 3.5V6H10.5V3.5H6ZM14.5 14V6.21875C14.5 6.15625 14.4688 6.125 14.4375 6.09375L12 3.625V6.75C12 7.1875 11.6562 7.5 11.25 7.5H5.25C4.8125 7.5 4.5 7.1875 4.5 6.75V3.5H4C3.71875 3.5 3.5 3.75 3.5 4V14C3.5 14.2812 3.71875 14.5 4 14.5H14C14.25 14.5 14.5 14.2812 14.5 14Z" ></path>
</symbol>
<symbol viewBox="0 0 24 24" id="search">
  <path d="M19.75 18.7188C20.0625 19.0312 20.0625 19.5 19.75 19.7812C19.625 19.9375 19.4375 20 19.25 20C19.0312 20 18.8438 19.9375 18.6875 19.7812L14.5 15.5938C13.375 16.5 11.9688 17 10.4688 17C6.90625 17 4 14.0938 4 10.5C4 6.9375 6.875 4 10.4688 4C14.0312 4 16.9688 6.9375 16.9688 10.5C16.9688 12.0312 16.4688 13.4375 15.5625 14.5312L19.75 18.7188ZM5.5 10.5C5.5 13.2812 7.71875 15.5 10.5 15.5C13.25 15.5 15.5 13.2812 15.5 10.5C15.5 7.75 13.25 5.5 10.5 5.5C7.71875 5.5 5.5 7.75 5.5 10.5Z" ></path>
</symbol>
<symbol viewBox="0 0 16 16" id="sort">
<path d="M8.18567 13.1691L9.58138 14.5648C9.70029 14.6837 9.86014 14.75 10.0278 14.75C10.1954 14.75 10.3553 14.6837 10.4742 14.5648L11.8699 13.1691C12.1174 12.9215 12.1174 12.5219 11.8699 12.2763C11.7471 12.1535 11.5853 12.0911 11.4235 12.0911C11.2617 12.0911 11.0999 12.1535 10.9771 12.2763L10.6516 12.6019V7.87378C10.6516 7.52875 10.3728 7.25 10.0278 7.25C9.68275 7.25 9.404 7.52875 9.404 7.87378V12.6019L9.07846 12.2763C8.8309 12.0288 8.43129 12.0288 8.18567 12.2763C7.93811 12.5239 7.93811 12.9235 8.18567 13.1691Z" ></path>
<path d="M7.87651 2.8309L6.47841 1.43519C6.3593 1.31628 6.19918 1.25 6.03125 1.25C5.86332 1.25 5.7032 1.31628 5.58409 1.43519L4.18599 2.8309C3.938 3.07846 3.938 3.47807 4.18599 3.72368C4.30901 3.84649 4.47108 3.90887 4.63315 3.90887C4.79522 3.90887 4.95729 3.84649 5.08031 3.72368L5.4064 3.39815V8.12622C5.4064 8.47125 5.68563 8.75 6.03125 8.75C6.37687 8.75 6.6561 8.47125 6.6561 8.12622V3.39815L6.98219 3.72368C7.23018 3.97125 7.63048 3.97125 7.87651 3.72368C8.1245 3.47612 8.1245 3.07651 7.87651 2.8309Z" ></path>
</symbol>
</defs>
</svg>
